<svg viewBox="0 0 64 64" xml:space="preserve" xmlns="http://www.w3.org/2000/svg"><circle cx="32" cy="32" fill="#ffffff" r="32" class="fill-4f5d73 fill-ffffff"></circle><path d="M52 45a4 4 0 0 1-4 4H16a4 4 0 0 1-4-4V25a4 4 0 0 1 4-4h32a4 4 0 0 1 4 4v20z" fill="#1a1315" opacity=".2" class="fill-231f20 fill-0f0b0c"></path><path d="M38 16v20H26V16h12m0-4H26a4 4 0 0 0-4 4v20a4 4 0 0 0 4 4h12a4 4 0 0 0 4-4V16a4 4 0 0 0-4-4z" fill="#b02121" class="fill-e0995e fill-b02121"></path><path d="M12 28v15a4 4 0 0 0 4 4h32a4 4 0 0 0 4-4V28H12z" fill="#b02121" class="fill-e0995e fill-b02121"></path><path d="M52 25a4 4 0 0 0-4-4H16a4 4 0 0 0-4 4v5h40v-5z" fill="#1a1315" opacity=".2" class="fill-231f20 fill-0f0b0c"></path><path d="M40 32a4 4 0 0 1-4 4h-8a4 4 0 0 1-4-4v-3a4 4 0 0 1 4-4h8a4 4 0 0 1 4 4v3z" fill="#1a1315" opacity=".2" class="fill-231f20 fill-0f0b0c"></path><path d="M36 27v3h-8v-3h8m0-4h-8a4 4 0 0 0-4 4v3a4 4 0 0 0 4 4h8a4 4 0 0 0 4-4v-3a4 4 0 0 0-4-4z" fill="#ffffff" class="fill-f5cf87 fill-943232"></path><path d="M52 23a4 4 0 0 0-4-4H16a4 4 0 0 0-4 4v5h40v-5z" fill="#b02121" class="fill-e0995e fill-b02121"></path></svg>